<svg class="svg-icon" style="width: 1em; height: 1em;vertical-align: middle;fill: currentColor;overflow: hidden;" viewBox="0 0 1024 1024" version="1.1" xmlns="http://www.w3.org/2000/svg"><path d="M382.9 753.5v-3H379V613.7l-2.2-77.6c-3.9-1-8-1.5-12.2-1.5H261.8c-13.7 0-24.8 11.1-24.8 24.8v236.3c0 2.4 0.2 3.1 0.6 5.1 0 0.2 0.1 0.4 0.1 0.6 0.1 0.5 0.2 0.9 0.3 1.4h175.4c0.7-2.5 1-4 1-7.1v-42.2h-31.5zM288.1 581h44.5v169.5h-48.3V584.8c0-2.1 1.7-3.8 3.8-3.8z m76.2 0h-31.7v169.5h-48.3V788h83.8V584.8c0-2.1-1.7-3.8-3.8-3.8zM554.4 444v306.5h-51.3v3.9h55.2V444h-3.9z m50.2 311.5v-4.9h-3.9v-337c0-4.7-0.7-9.3-1.9-13.6-4.7-1.5-9.7-2.3-14.9-2.3H477.8c-11.6 0-21 9.4-21 21v356.5c0 10.2 3.9 17.8 10.3 24.6l1 1c0.7 0.7 1.4 1.3 2.1 1.9l0.1 0.1h150.4c8.3-7 13.5-15.8 13.5-27.5v-19.8h-29.6zM584.1 444c2.1 0 3.8 1.7 3.8 3.8v319.5h-84.8v-12.8h55.2V444h25.8z m-81 3.7c0-2.1 1.7-3.8 3.8-3.8h47.5v305.5h-51.3V447.7zM850.5 761.8c-4.2-3.9-9.8-6.3-15.9-6.3h-8.2v-5.9h-3.9V428.3l-2.1-171c-4-1-8.1-1.5-12.4-1.5h-99.2c-15.6 0-28.2 12.6-28.2 28.2v482.1c0 15.3 9.3 28.5 22.6 34.2 2.8 1.2 5.7 2 8.7 2.5h112.8c12.8-1.8 23.6-9.2 29-20.2l-3.2-20.8z m-37.9-456v452.6h-84.8V305.8c0-2.1 1.7-3.8 3.8-3.8h77.2c2.1 0.1 3.8 1.8 3.8 3.8z" fill="#E5E7E7" /><path d="M376.7 535.7c-0.2-0.7-0.4-1.4-0.7-2-6.9-19.5-25.6-33.5-47.4-33.5h-76.8c-27.8 0-50.3 22.5-50.3 50.3v211.1c0 19.4 14.2 35.6 32.7 38.7 1.3 0.2 2.5 0.4 3.8 0.4 0.8 0.1 1.7 0.1 2.6 0.1h99.1c21.6 0 39.1-17.5 39.1-39.1V550.6c0.1-5.2-0.6-10.2-2.1-14.9z m-125.1 10.8h77.2c2.1 0 3.8 1.7 3.8 3.8v203.2h-84.8V550.3c0.1-2.1 1.7-3.8 3.8-3.8zM598.8 399.9c-0.4-1.3-0.8-2.7-1.3-4-7.2-19.1-25.6-32.7-47.2-32.7h-76.8c-27.8 0-50.3 22.5-50.3 50.3v346.2c0 21.6 17.5 39.1 39.1 39.1h99.1c21.6 0 39.1-17.5 39.1-39.1V413.4c0.2-4.7-0.4-9.2-1.7-13.5z m-125.4 9.6h77.2c2.1 0 3.8 1.7 3.8 3.8v339.2h-84.8V413.3c0-2.1 1.7-3.8 3.8-3.8z" fill="#EFCB8E" /><path d="M820.4 257.2c-0.4-1.4-0.9-2.8-1.5-4.2-7.4-18.6-25.6-31.7-46.8-31.7h-76.8c-27.8 0-50.3 22.5-50.3 50.3v489.1c0 21.6 17.5 39.1 39.1 39.1h99.1c21.6 0 39.1-17.5 39.1-39.1V271.6c0.2-5-0.6-9.9-1.9-14.4z m-129 496.3V272.3c0-2.1 1.7-3.8 3.8-3.8h77.2c2.1 0 3.8 1.7 3.8 3.8v481.2h-84.8z" fill="#1F1F1F" /><path d="M855 773.8v5.8c0 1-0.1 2-0.2 3-1.5 11.4-11.3 20.2-23.1 20.2H192.3c-12.9 0-23.3-10.4-23.3-23.2v-5.8c0-12.8 10.4-23.2 23.3-23.2h639.4c8.5 0 15.9 4.5 19.9 11.2 1.1 1.8 1.9 3.6 2.5 5.7 0.6 1.9 0.9 4.1 0.9 6.3z" fill="#1F1F1F" /></svg>